<svg width="500" height="500" viewBox="0 0 500 500" fill="none" xmlns="http://www.w3.org/2000/svg">
<path d="M266.808 260.276C266.808 262.135 266.468 263.835 265.788 265.376C265.108 266.917 264.133 268.232 262.864 269.32C261.594 270.408 260.076 271.247 258.308 271.836C256.54 272.471 254.545 272.811 252.324 272.856V279.044H249.74V272.652C248.697 272.425 247.632 272.176 246.544 271.904C245.501 271.632 244.458 271.315 243.416 270.952C242.101 271.088 240.741 271.587 239.336 272.448C238.565 270.408 237.794 268.436 237.024 266.532C236.298 264.583 235.55 262.588 234.78 260.548C235.052 260.367 235.301 260.208 235.528 260.072C235.8 259.936 236.072 259.777 236.344 259.596C238.565 262.951 240.718 265.421 242.804 267.008C244.934 268.549 247.246 269.547 249.74 270V250.756C245.07 249.079 241.67 247.197 239.54 245.112C237.454 242.981 236.412 240.42 236.412 237.428C236.412 235.479 236.752 233.801 237.432 232.396C238.157 230.945 239.109 229.744 240.288 228.792C241.512 227.84 242.917 227.137 244.504 226.684C246.136 226.185 247.881 225.913 249.74 225.868V219.952H252.324V226.072C253.094 226.163 253.888 226.344 254.704 226.616C255.565 226.843 256.472 227.183 257.424 227.636L260.96 226.276C261.73 228.225 262.478 230.175 263.204 232.124C263.974 234.073 264.745 236.023 265.516 237.972C265.289 238.108 265.04 238.244 264.768 238.38C264.541 238.471 264.314 238.584 264.088 238.72C262.365 235.728 260.438 233.393 258.308 231.716C256.222 230.039 254.228 228.973 252.324 228.52V246.88C255.225 247.923 257.605 248.92 259.464 249.872C261.368 250.824 262.864 251.821 263.952 252.864C265.04 253.907 265.788 255.017 266.196 256.196C266.604 257.375 266.808 258.735 266.808 260.276ZM252.324 270.34C255.588 270.249 258.149 269.433 260.008 267.892C261.866 266.351 262.796 264.22 262.796 261.5C262.796 260.412 262.66 259.46 262.388 258.644C262.116 257.828 261.594 257.057 260.824 256.332C260.053 255.607 258.988 254.904 257.628 254.224C256.268 253.544 254.5 252.796 252.324 251.98V270.34ZM249.74 228.248C246.748 228.339 244.413 229.132 242.736 230.628C241.058 232.079 240.22 234.119 240.22 236.748C240.22 240.239 243.393 243.208 249.74 245.656V228.248Z" fill="#5A9B0A"/>
<path d="M400.99 265.088C400.926 261.566 399.529 258.176 397.038 255.663C394.548 253.149 391.179 251.718 387.659 251.685C384.139 251.651 380.743 253.017 378.205 255.483C375.666 257.948 374.205 261.311 374.074 264.83C374.074 264.83 374.074 264.83 374.074 264.83C373.595 276.1 370.367 287.565 365.33 298.324C344.651 342.019 297.106 373.033 249.992 371.826C190.455 372.246 137.673 324.048 130.729 265.656C129.908 259.734 129.484 253.771 129.451 247.75C127.667 182.492 184.103 121.124 253.468 118.062C290.016 115.608 328.385 128.671 357.005 155.285C366.684 164.231 375.25 174.631 382.287 186.19C377.529 173.522 370.798 161.411 362.346 150.428C337.527 117.768 296.735 95.9344 253.468 93.9376C171.438 87.1217 89.7197 161.085 91.5493 247.75C91.5168 255.489 92.0243 263.2 93.0896 270.879C101.676 346.858 173.66 410.169 250 407.092C312.437 406.414 368.674 365.601 391.948 309.889C397.631 295.948 401.19 280.798 400.99 265.088Z" fill="url(#paint0_linear_3_2)"/>
<path d="M400.99 265.088C400.926 261.566 399.529 258.176 397.038 255.663C394.548 253.149 391.179 251.718 387.659 251.685C384.139 251.651 380.743 253.017 378.205 255.483C375.666 257.948 374.205 261.311 374.074 264.83C374.074 264.83 374.074 264.83 374.074 264.83C373.595 276.1 370.367 287.565 365.33 298.324C344.651 342.019 297.106 373.033 249.992 371.826C190.455 372.246 137.673 324.048 130.729 265.656C129.908 259.734 129.484 253.771 129.451 247.75C127.667 182.492 184.103 121.124 253.468 118.062C290.016 115.608 328.385 128.671 357.005 155.285C366.684 164.231 375.25 174.631 382.287 186.19C377.529 173.522 370.798 161.411 362.346 150.428C337.527 117.768 296.735 95.9344 253.468 93.9376C171.438 87.1217 89.7197 161.085 91.5493 247.75C91.5168 255.489 92.0243 263.2 93.0896 270.879C101.676 346.858 173.66 410.169 250 407.092C312.437 406.414 368.674 365.601 391.948 309.889C397.631 295.948 401.19 280.798 400.99 265.088Z" fill="black" fill-opacity="0.2"/>
<path d="M250.75 169.5C293.953 169.5 329 205.528 329 250C329 294.472 293.953 330.5 250.75 330.5C207.547 330.5 172.5 294.472 172.5 250C172.5 205.528 207.547 169.5 250.75 169.5Z" stroke="#5A9B0A"/>
<circle cx="250" cy="250" r="187" stroke="#5A9B0A"/>
<g clip-path="url(#paint1_diamond_3_2_clip_path)" data-figma-skip-parse="true"><g transform="matrix(0.000891035 0.0684673 -0.0414612 0.000468053 385.532 222.957)"><rect x="0" y="0" width="793.125" height="570.197" fill="url(#paint1_diamond_3_2)" opacity="1" shape-rendering="crispEdges"/><rect x="0" y="0" width="793.125" height="570.197" transform="scale(1 -1)" fill="url(#paint1_diamond_3_2)" opacity="1" shape-rendering="crispEdges"/><rect x="0" y="0" width="793.125" height="570.197" transform="scale(-1 1)" fill="url(#paint1_diamond_3_2)" opacity="1" shape-rendering="crispEdges"/><rect x="0" y="0" width="793.125" height="570.197" transform="scale(-1)" fill="url(#paint1_diamond_3_2)" opacity="1" shape-rendering="crispEdges"/></g></g><path d="M395.401 227.5C398.718 238.836 402.117 248.793 406.257 258.21C408.479 263.263 409.589 265.79 409.135 267.98C408.923 269.003 408.444 270.038 407.802 270.862C406.427 272.627 404.191 273.295 399.719 274.629C390.271 277.448 382.13 277.801 372.77 275.431C368.103 274.249 365.769 273.657 364.3 271.82C363.62 270.969 363.111 269.873 362.9 268.804C362.445 266.496 363.759 263.799 366.389 258.406C371.109 248.728 374.424 238.716 377.213 227.5H395.401Z" data-figma-gradient-fill="{&#34;type&#34;:&#34;GRADIENT_DIAMOND&#34;,&#34;stops&#34;:[{&#34;color&#34;:{&#34;r&#34;:0.10980392247438431,&#34;g&#34;:0.79215687513351440,&#34;b&#34;:0.24705882370471954,&#34;a&#34;:1.0},&#34;position&#34;:0.0},{&#34;color&#34;:{&#34;r&#34;:0.35294118523597717,&#34;g&#34;:0.60784316062927246,&#34;b&#34;:0.039215687662363052,&#34;a&#34;:1.0},&#34;position&#34;:1.0}],&#34;stopsVar&#34;:[{&#34;color&#34;:{&#34;r&#34;:0.10980392247438431,&#34;g&#34;:0.79215687513351440,&#34;b&#34;:0.24705882370471954,&#34;a&#34;:1.0},&#34;position&#34;:0.0},{&#34;color&#34;:{&#34;r&#34;:0.35294118523597717,&#34;g&#34;:0.60784316062927246,&#34;b&#34;:0.039215687662363052,&#34;a&#34;:1.0},&#34;position&#34;:1.0}],&#34;transform&#34;:{&#34;m00&#34;:1.7820695638656616,&#34;m01&#34;:-82.922348022460938,&#34;m02&#34;:426.10211181640625,&#34;m10&#34;:136.93458557128906,&#34;m11&#34;:0.93610513210296631,&#34;m12&#34;:154.02120971679688},&#34;opacity&#34;:1.0,&#34;blendMode&#34;:&#34;NORMAL&#34;,&#34;visible&#34;:true}"/>
<ellipse cx="386.237" cy="228.437" rx="9.3375" ry="6.75" fill="#2ABF33"/>
<defs>
<clipPath id="paint1_diamond_3_2_clip_path"><path d="M395.401 227.5C398.718 238.836 402.117 248.793 406.257 258.21C408.479 263.263 409.589 265.79 409.135 267.98C408.923 269.003 408.444 270.038 407.802 270.862C406.427 272.627 404.191 273.295 399.719 274.629C390.271 277.448 382.13 277.801 372.77 275.431C368.103 274.249 365.769 273.657 364.3 271.82C363.62 270.969 363.111 269.873 362.9 268.804C362.445 266.496 363.759 263.799 366.389 258.406C371.109 248.728 374.424 238.716 377.213 227.5H395.401Z"/></clipPath><linearGradient id="paint0_linear_3_2" x1="249.016" y1="106" x2="249.016" y2="389.459" gradientUnits="userSpaceOnUse">
<stop offset="0.638939" stop-color="#6FDC30" stop-opacity="0.86"/>
<stop offset="1" stop-color="#5A9B0A"/>
</linearGradient>
<linearGradient id="paint1_diamond_3_2" x1="0" y1="0" x2="500" y2="500" gradientUnits="userSpaceOnUse">
<stop stop-color="#1CCA3F"/>
<stop offset="1" stop-color="#5A9B0A"/>
</linearGradient>
</defs>
</svg>
