<svg width="350" height="500" viewBox="0 0 350 500" fill="none" xmlns="http://www.w3.org/2000/svg">
<rect width="350" height="500" fill="#EDECE9" fill-opacity="0.94"/>
<path d="M191.558 197.276C191.558 199.135 191.218 200.835 190.538 202.376C189.858 203.917 188.883 205.232 187.614 206.32C186.344 207.408 184.826 208.247 183.058 208.836C181.29 209.471 179.295 209.811 177.074 209.856V216.044H174.49V209.652C173.447 209.425 172.382 209.176 171.294 208.904C170.251 208.632 169.208 208.315 168.166 207.952C166.851 208.088 165.491 208.587 164.086 209.448C163.315 207.408 162.544 205.436 161.774 203.532C161.048 201.583 160.3 199.588 159.53 197.548C159.802 197.367 160.051 197.208 160.278 197.072C160.55 196.936 160.822 196.777 161.094 196.596C163.315 199.951 165.468 202.421 167.554 204.008C169.684 205.549 171.996 206.547 174.49 207V187.756C169.82 186.079 166.42 184.197 164.29 182.112C162.204 179.981 161.162 177.42 161.162 174.428C161.162 172.479 161.502 170.801 162.182 169.396C162.907 167.945 163.859 166.744 165.038 165.792C166.262 164.84 167.667 164.137 169.254 163.684C170.886 163.185 172.631 162.913 174.49 162.868V156.952H177.074V163.072C177.844 163.163 178.638 163.344 179.454 163.616C180.315 163.843 181.222 164.183 182.174 164.636L185.71 163.276C186.48 165.225 187.228 167.175 187.954 169.124C188.724 171.073 189.495 173.023 190.266 174.972C190.039 175.108 189.79 175.244 189.518 175.38C189.291 175.471 189.064 175.584 188.838 175.72C187.115 172.728 185.188 170.393 183.058 168.716C180.972 167.039 178.978 165.973 177.074 165.52V183.88C179.975 184.923 182.355 185.92 184.214 186.872C186.118 187.824 187.614 188.821 188.702 189.864C189.79 190.907 190.538 192.017 190.946 193.196C191.354 194.375 191.558 195.735 191.558 197.276ZM177.074 207.34C180.338 207.249 182.899 206.433 184.758 204.892C186.616 203.351 187.546 201.22 187.546 198.5C187.546 197.412 187.41 196.46 187.138 195.644C186.866 194.828 186.344 194.057 185.574 193.332C184.803 192.607 183.738 191.904 182.378 191.224C181.018 190.544 179.25 189.796 177.074 188.98V207.34ZM174.49 165.248C171.498 165.339 169.163 166.132 167.486 167.628C165.808 169.079 164.97 171.119 164.97 173.748C164.97 177.239 168.143 180.208 174.49 182.656V165.248Z" fill="#5A9B0A"/>
<path d="M275.188 197.054C275.151 194.828 274.269 192.686 272.695 191.097C271.122 189.508 268.993 188.604 266.768 188.583C264.544 188.562 262.397 189.425 260.794 190.983C259.19 192.541 258.268 194.667 258.188 196.891C258.188 196.891 258.188 196.891 258.188 196.891C257.881 204.483 255.723 212.19 252.353 219.419C238.522 248.76 206.673 269.608 174.995 268.836C135.009 269.163 99.484 236.765 94.8256 197.529C94.2737 193.55 93.9899 189.544 93.9689 185.5C92.7791 141.619 130.847 100.486 177.312 98.6184C201.795 97.0602 227.417 105.923 246.43 123.772C252.861 129.771 258.54 136.734 263.191 144.46C259.979 136.034 255.46 127.99 249.804 120.704C233.191 99.0368 206.039 84.6348 177.312 83.3816C122.848 79.011 68.8122 128.099 70.0311 185.5C70.0106 190.629 70.3475 195.739 71.0534 200.828C76.7491 251.172 124.401 293.114 175 291.109C216.356 290.691 253.694 263.654 269.165 226.723C272.942 217.485 275.309 207.449 275.188 197.054Z" fill="url(#paint0_linear_1_2)"/>
<path d="M275.188 197.054C275.151 194.828 274.269 192.686 272.695 191.097C271.122 189.508 268.993 188.604 266.768 188.583C264.544 188.562 262.397 189.425 260.794 190.983C259.19 192.541 258.268 194.667 258.188 196.891C258.188 196.891 258.188 196.891 258.188 196.891C257.881 204.483 255.723 212.19 252.353 219.419C238.522 248.76 206.673 269.608 174.995 268.836C135.009 269.163 99.484 236.765 94.8256 197.529C94.2737 193.55 93.9899 189.544 93.9689 185.5C92.7791 141.619 130.847 100.486 177.312 98.6184C201.795 97.0602 227.417 105.923 246.43 123.772C252.861 129.771 258.54 136.734 263.191 144.46C259.979 136.034 255.46 127.99 249.804 120.704C233.191 99.0368 206.039 84.6348 177.312 83.3816C122.848 79.011 68.8122 128.099 70.0311 185.5C70.0106 190.629 70.3475 195.739 71.0534 200.828C76.7491 251.172 124.401 293.114 175 291.109C216.356 290.691 253.694 263.654 269.165 226.723C272.942 217.485 275.309 207.449 275.188 197.054Z" fill="black" fill-opacity="0.2"/>
<path d="M80.2148 384.969C79.082 384.969 78.0729 384.943 77.1875 384.891C76.3151 384.839 75.5078 384.708 74.7656 384.5C74.0234 384.305 73.3854 384.122 72.8516 383.953C72.3307 383.784 71.8555 383.465 71.4258 382.996C71.0091 382.514 70.6641 382.104 70.3906 381.766C70.1172 381.414 69.8828 380.841 69.6875 380.047C69.4922 379.24 69.349 378.556 69.2578 377.996C69.1667 377.423 69.0885 376.544 69.0234 375.359C68.9714 374.174 68.9388 373.159 68.9258 372.312C68.9258 371.466 68.9258 370.242 68.9258 368.641C68.9258 366.714 68.9779 365.112 69.082 363.836C69.1862 362.56 69.388 361.375 69.6875 360.281C70 359.188 70.4036 358.328 70.8984 357.703C71.4062 357.078 72.0898 356.544 72.9492 356.102C73.8216 355.646 74.8307 355.34 75.9766 355.184C77.1354 355.014 78.5482 354.93 80.2148 354.93C81.7904 354.93 83.138 355.008 84.2578 355.164C85.3776 355.32 86.3672 355.6 87.2266 356.004C88.099 356.395 88.7956 356.889 89.3164 357.488C89.8503 358.074 90.2865 358.849 90.625 359.812C90.9635 360.776 91.1914 361.857 91.3086 363.055C91.4388 364.24 91.5039 365.685 91.5039 367.391C91.5039 372.208 91.4323 375.379 91.2891 376.902C91.0417 379.507 90.4427 381.368 89.4922 382.488C88.4896 383.686 86.7839 384.441 84.375 384.754C83.2292 384.897 81.8424 384.969 80.2148 384.969ZM83.0078 358.016C82.2656 357.964 81.3346 357.938 80.2148 357.938C79.0951 357.938 78.1641 357.964 77.4219 358.016C76.6797 358.068 76.0286 358.178 75.4688 358.348C74.9219 358.517 74.4987 358.706 74.1992 358.914C73.8997 359.122 73.6523 359.448 73.457 359.891C73.2747 360.32 73.151 360.763 73.0859 361.219C73.0339 361.674 72.9948 362.293 72.9688 363.074C72.9297 365.483 72.9102 367.905 72.9102 370.34C72.9102 374.012 73.0078 376.525 73.2031 377.879C73.5156 379.91 74.1081 381.082 74.9805 381.395C75.6315 381.772 77.3763 381.961 80.2148 381.961C83.0534 381.961 84.7982 381.772 85.4492 381.395C85.6966 381.303 85.918 381.154 86.1133 380.945C86.3216 380.737 86.4909 380.457 86.6211 380.105C86.7643 379.754 86.888 379.402 86.9922 379.051C87.0964 378.686 87.181 378.224 87.2461 377.664C87.3112 377.104 87.3633 376.603 87.4023 376.16C87.4414 375.704 87.4674 375.132 87.4805 374.441C87.4935 373.738 87.5 373.159 87.5 372.703C87.513 372.247 87.5195 371.642 87.5195 370.887C87.5195 368.257 87.5 365.652 87.4609 363.074C87.4349 362.293 87.3893 361.674 87.3242 361.219C87.2721 360.763 87.1484 360.32 86.9531 359.891C86.7708 359.448 86.5299 359.122 86.2305 358.914C85.931 358.706 85.5013 358.517 84.9414 358.348C84.3945 358.178 83.75 358.068 83.0078 358.016ZM114.004 384.52H110.449L110.098 381.766C109.759 382.794 109.017 383.556 107.871 384.051C106.738 384.546 105.352 384.793 103.711 384.793C102.591 384.793 101.647 384.682 100.879 384.461C100.111 384.24 99.4661 383.921 98.9453 383.504C98.4375 383.074 98.0404 382.482 97.7539 381.727C97.4805 380.958 97.2852 380.105 97.168 379.168C97.0638 378.217 97.0117 377.039 97.0117 375.633V363.074H100.859V375.516C100.859 375.802 100.853 376.193 100.84 376.688C100.84 377.169 100.84 377.508 100.84 377.703C100.84 378.393 100.853 378.934 100.879 379.324C100.905 379.715 100.97 380.099 101.074 380.477C101.191 380.854 101.341 381.134 101.523 381.316C101.706 381.486 101.979 381.642 102.344 381.785C102.708 381.928 103.125 382.02 103.594 382.059C104.076 382.098 104.688 382.117 105.43 382.117C106.263 382.117 106.973 382.059 107.559 381.941C108.145 381.824 108.607 381.674 108.945 381.492C109.284 381.297 109.538 381.036 109.707 380.711C109.889 380.385 110.007 380.066 110.059 379.754C110.111 379.441 110.137 379.051 110.137 378.582C110.137 378.426 110.13 378.172 110.117 377.82C110.117 377.469 110.117 377.202 110.117 377.02V363.074H114.004V384.52ZM129.57 362.586L129.414 365.848C128.919 365.783 128.451 365.75 128.008 365.75C127.083 365.75 126.335 365.841 125.762 366.023C125.189 366.206 124.753 366.518 124.453 366.961C124.167 367.404 123.971 367.911 123.867 368.484C123.776 369.044 123.73 369.799 123.73 370.75C123.73 371.284 123.75 372.065 123.789 373.094C123.841 374.122 123.867 374.858 123.867 375.301V384.5H120.02V363.074H123.516L123.906 365.477C124.31 364.539 124.922 363.816 125.742 363.309C126.562 362.788 127.546 362.527 128.691 362.527C128.978 362.527 129.271 362.547 129.57 362.586ZM142.148 382.098C143.997 382.059 145.28 381.922 145.996 381.688C146.725 381.453 147.09 380.991 147.09 380.301C147.233 378.439 147.305 376.284 147.305 373.836C147.305 373.029 147.272 371.876 147.207 370.379C147.142 368.868 147.109 367.749 147.109 367.02C147.109 366.798 147.07 366.596 146.992 366.414C146.927 366.232 146.81 366.082 146.641 365.965C146.484 365.835 146.322 365.724 146.152 365.633C145.996 365.542 145.768 365.47 145.469 365.418C145.182 365.366 144.935 365.32 144.727 365.281C144.531 365.242 144.245 365.216 143.867 365.203C143.503 365.19 143.216 365.184 143.008 365.184C142.812 365.184 142.52 365.184 142.129 365.184C141.738 365.184 141.439 365.184 141.23 365.184C141.035 365.184 140.749 365.19 140.371 365.203C140.007 365.216 139.72 365.242 139.512 365.281C139.316 365.32 139.069 365.366 138.77 365.418C138.483 365.47 138.255 365.542 138.086 365.633C137.93 365.724 137.767 365.835 137.598 365.965C137.441 366.082 137.324 366.232 137.246 366.414C137.181 366.596 137.148 366.798 137.148 367.02C137.148 367.749 137.116 368.868 137.051 370.379C136.986 371.876 136.953 373.029 136.953 373.836C136.953 376.284 137.025 378.439 137.168 380.301C137.168 380.991 137.546 381.466 138.301 381.727C139.069 381.974 140.352 382.098 142.148 382.098ZM142.109 384.793C140.664 384.793 139.46 384.734 138.496 384.617C137.533 384.5 136.699 384.246 135.996 383.855C135.306 383.452 134.779 383.029 134.414 382.586C134.049 382.13 133.763 381.421 133.555 380.457C133.346 379.48 133.216 378.517 133.164 377.566C133.125 376.616 133.105 375.294 133.105 373.602C133.105 372.339 133.118 371.284 133.145 370.438C133.184 369.591 133.262 368.764 133.379 367.957C133.496 367.137 133.639 366.479 133.809 365.984C133.991 365.477 134.245 365.001 134.57 364.559C134.909 364.103 135.286 363.758 135.703 363.523C136.12 363.289 136.647 363.087 137.285 362.918C137.936 362.736 138.639 362.618 139.395 362.566C140.163 362.501 141.074 362.469 142.129 362.469C143.184 362.469 144.089 362.501 144.844 362.566C145.612 362.618 146.315 362.736 146.953 362.918C147.604 363.087 148.138 363.289 148.555 363.523C148.971 363.758 149.342 364.103 149.668 364.559C150.007 365.001 150.26 365.477 150.43 365.984C150.612 366.479 150.762 367.137 150.879 367.957C150.996 368.764 151.068 369.591 151.094 370.438C151.133 371.284 151.152 372.339 151.152 373.602C151.152 375.294 151.126 376.616 151.074 377.566C151.035 378.517 150.911 379.48 150.703 380.457C150.495 381.421 150.202 382.13 149.824 382.586C149.46 383.042 148.926 383.465 148.223 383.855C147.533 384.246 146.706 384.5 145.742 384.617C144.779 384.734 143.568 384.793 142.109 384.793ZM177.324 376.121C177.311 376.941 177.279 377.664 177.227 378.289C177.188 378.901 177.116 379.48 177.012 380.027C176.908 380.574 176.797 381.036 176.68 381.414C176.562 381.792 176.374 382.15 176.113 382.488C175.866 382.814 175.625 383.081 175.391 383.289C175.156 383.484 174.818 383.667 174.375 383.836C173.945 383.992 173.529 384.109 173.125 384.188C172.721 384.266 172.181 384.331 171.504 384.383C170.84 384.435 170.195 384.467 169.57 384.48C168.958 384.493 168.184 384.5 167.246 384.5H156.816V355.398H167.871C169.342 355.398 170.56 355.477 171.523 355.633C172.5 355.776 173.359 356.043 174.102 356.434C174.857 356.824 175.404 357.378 175.742 358.094C176.081 358.81 176.257 359.721 176.27 360.828L176.289 362.938C176.289 363.823 176.257 364.546 176.191 365.105C176.126 365.665 176.009 366.173 175.84 366.629C175.684 367.085 175.443 367.443 175.117 367.703C174.792 367.964 174.395 368.185 173.926 368.367C173.47 368.536 172.878 368.686 172.148 368.816C173.034 368.908 173.796 369.103 174.434 369.402C175.072 369.702 175.573 370.06 175.938 370.477C176.315 370.893 176.608 371.421 176.816 372.059C177.025 372.697 177.161 373.322 177.227 373.934C177.292 374.546 177.324 375.275 177.324 376.121ZM172.422 362.098C172.422 362.072 172.422 362.033 172.422 361.98C172.422 361.434 172.422 361.049 172.422 360.828C172.422 360.594 172.383 360.314 172.305 359.988C172.24 359.65 172.168 359.428 172.09 359.324C172.025 359.22 171.862 359.083 171.602 358.914C171.354 358.732 171.107 358.628 170.859 358.602C170.612 358.562 170.221 358.517 169.688 358.465C169.167 358.4 168.646 358.367 168.125 358.367C167.604 358.367 166.895 358.367 165.996 358.367H160.742V367.703H164.668C166.374 367.703 167.754 367.658 168.809 367.566C169.863 367.462 170.645 367.293 171.152 367.059C171.673 366.811 172.012 366.551 172.168 366.277C172.337 366.004 172.422 365.639 172.422 365.184V362.098ZM173.457 375.184C173.431 373.634 173.372 372.658 173.281 372.254C173.099 371.538 172.65 371.049 171.934 370.789C171.048 370.451 169.069 370.275 165.996 370.262C165.788 370.262 165.56 370.262 165.312 370.262H160.742V381.551H168.203C169.714 381.551 170.853 381.427 171.621 381.18C172.389 380.919 172.897 380.535 173.145 380.027C173.392 379.52 173.509 378.771 173.496 377.781L173.457 375.184ZM199.277 384.52H195.723L195.371 381.766C195.033 382.794 194.29 383.556 193.145 384.051C192.012 384.546 190.625 384.793 188.984 384.793C187.865 384.793 186.921 384.682 186.152 384.461C185.384 384.24 184.74 383.921 184.219 383.504C183.711 383.074 183.314 382.482 183.027 381.727C182.754 380.958 182.559 380.105 182.441 379.168C182.337 378.217 182.285 377.039 182.285 375.633V363.074H186.133V375.516C186.133 375.802 186.126 376.193 186.113 376.688C186.113 377.169 186.113 377.508 186.113 377.703C186.113 378.393 186.126 378.934 186.152 379.324C186.178 379.715 186.243 380.099 186.348 380.477C186.465 380.854 186.615 381.134 186.797 381.316C186.979 381.486 187.253 381.642 187.617 381.785C187.982 381.928 188.398 382.02 188.867 382.059C189.349 382.098 189.961 382.117 190.703 382.117C191.536 382.117 192.246 382.059 192.832 381.941C193.418 381.824 193.88 381.674 194.219 381.492C194.557 381.297 194.811 381.036 194.98 380.711C195.163 380.385 195.28 380.066 195.332 379.754C195.384 379.441 195.41 379.051 195.41 378.582C195.41 378.426 195.404 378.172 195.391 377.82C195.391 377.469 195.391 377.202 195.391 377.02V363.074H199.277V384.52ZM222.305 384.5H218.789L218.418 381.805C217.624 383.797 215.547 384.793 212.188 384.793C211.289 384.793 210.482 384.734 209.766 384.617C209.062 384.5 208.451 384.298 207.93 384.012C207.422 383.725 206.986 383.432 206.621 383.133C206.257 382.82 205.951 382.378 205.703 381.805C205.469 381.219 205.28 380.691 205.137 380.223C205.007 379.741 204.909 379.077 204.844 378.23C204.779 377.384 204.74 376.648 204.727 376.023C204.714 375.385 204.707 374.526 204.707 373.445C204.707 372.391 204.72 371.479 204.746 370.711C204.785 369.943 204.85 369.181 204.941 368.426C205.046 367.671 205.176 367.039 205.332 366.531C205.501 366.01 205.723 365.509 205.996 365.027C206.27 364.546 206.595 364.161 206.973 363.875C207.363 363.576 207.826 363.315 208.359 363.094C208.893 362.859 209.505 362.697 210.195 362.605C210.885 362.514 211.667 362.469 212.539 362.469C214.219 362.469 215.521 362.697 216.445 363.152C217.383 363.595 218.053 364.305 218.457 365.281V354.832L222.305 354.52V384.5ZM218.457 379.52V368.133C218.457 367 218.105 366.225 217.402 365.809C216.699 365.379 215.378 365.164 213.438 365.164C211.927 365.164 210.807 365.275 210.078 365.496C209.479 365.678 209.076 366.219 208.867 367.117C208.659 368.003 208.555 369.201 208.555 370.711C208.555 372.911 208.594 375.991 208.672 379.949C208.737 380.809 209.082 381.388 209.707 381.688C210.345 381.974 211.589 382.117 213.438 382.117C215.26 382.117 216.53 381.935 217.246 381.57C217.975 381.206 218.379 380.522 218.457 379.52ZM245.215 363.074V381.785C245.215 383.074 245.169 384.161 245.078 385.047C245 385.932 244.844 386.759 244.609 387.527C244.388 388.296 244.082 388.908 243.691 389.363C243.301 389.832 242.78 390.236 242.129 390.574C241.491 390.913 240.736 391.147 239.863 391.277C238.991 391.408 237.943 391.473 236.719 391.473C234.167 391.473 232.135 391.206 230.625 390.672L230.879 388.016C232.337 388.419 234.069 388.621 236.074 388.621C237.025 388.621 237.826 388.569 238.477 388.465C239.141 388.361 239.655 388.23 240.02 388.074C240.397 387.918 240.684 387.69 240.879 387.391C241.087 387.104 241.217 386.818 241.27 386.531C241.335 386.245 241.367 385.88 241.367 385.438L241.348 381.941C240.996 382.853 240.391 383.517 239.531 383.934C238.672 384.35 237.461 384.559 235.898 384.559C234.779 384.559 233.802 384.48 232.969 384.324C232.135 384.168 231.426 383.973 230.84 383.738C230.254 383.504 229.766 383.139 229.375 382.645C228.997 382.137 228.698 381.661 228.477 381.219C228.255 380.763 228.092 380.118 227.988 379.285C227.884 378.439 227.819 377.684 227.793 377.02C227.767 376.342 227.754 375.424 227.754 374.266C227.754 372.794 227.767 371.642 227.793 370.809C227.819 369.975 227.878 369.077 227.969 368.113C228.06 367.137 228.21 366.401 228.418 365.906C228.626 365.411 228.893 364.91 229.219 364.402C229.557 363.882 229.993 363.51 230.527 363.289C231.061 363.068 231.686 362.885 232.402 362.742C233.132 362.599 233.997 362.527 235 362.527C236.706 362.527 238.073 362.762 239.102 363.23C240.13 363.686 240.879 364.428 241.348 365.457L241.719 363.074H245.215ZM241.367 380.145V368.23C241.367 367.137 241.003 366.355 240.273 365.887C239.557 365.405 238.268 365.164 236.406 365.164C234.583 365.164 233.333 365.327 232.656 365.652C231.927 366.004 231.562 367.43 231.562 369.93C231.562 373.693 231.615 376.974 231.719 379.773C231.758 380.385 231.914 380.835 232.188 381.121C232.474 381.408 232.956 381.609 233.633 381.727C234.31 381.831 235.371 381.883 236.816 381.883C239.72 381.883 241.237 381.303 241.367 380.145ZM267.949 373.484C266.387 373.641 265.417 373.732 265.039 373.758H254.395C254.408 375.646 254.46 377.716 254.551 379.969C254.616 380.841 254.987 381.421 255.664 381.707C256.354 381.98 257.689 382.117 259.668 382.117C260.41 382.117 261.048 382.091 261.582 382.039C262.116 381.974 262.546 381.87 262.871 381.727C263.21 381.57 263.47 381.427 263.652 381.297C263.848 381.154 263.991 380.939 264.082 380.652C264.173 380.353 264.232 380.105 264.258 379.91C264.284 379.702 264.31 379.396 264.336 378.992C264.362 378.576 264.395 378.237 264.434 377.977L267.422 378.523C267.396 379.435 267.331 380.21 267.227 380.848C267.122 381.473 266.947 382.026 266.699 382.508C266.452 382.99 266.159 383.374 265.82 383.66C265.482 383.934 265.026 384.161 264.453 384.344C263.88 384.526 263.249 384.643 262.559 384.695C261.868 384.76 261.016 384.793 260 384.793C258.698 384.793 257.565 384.715 256.602 384.559C255.638 384.415 254.811 384.233 254.121 384.012C253.444 383.79 252.884 383.432 252.441 382.938C251.999 382.43 251.647 381.948 251.387 381.492C251.139 381.036 250.957 380.366 250.84 379.48C250.723 378.595 250.645 377.794 250.605 377.078C250.579 376.349 250.566 375.346 250.566 374.07C250.566 372.273 250.586 370.874 250.625 369.871C250.677 368.868 250.807 367.866 251.016 366.863C251.224 365.848 251.504 365.112 251.855 364.656C252.207 364.201 252.728 363.777 253.418 363.387C254.108 362.996 254.922 362.749 255.859 362.645C256.797 362.527 257.988 362.469 259.434 362.469C260.436 362.469 261.302 362.501 262.031 362.566C262.76 362.618 263.431 362.736 264.043 362.918C264.655 363.1 265.156 363.309 265.547 363.543C265.951 363.777 266.302 364.122 266.602 364.578C266.914 365.034 267.148 365.509 267.305 366.004C267.474 366.486 267.611 367.13 267.715 367.938C267.819 368.745 267.884 369.565 267.91 370.398C267.936 371.219 267.949 372.247 267.949 373.484ZM254.414 371.707H264.102C264.076 370.04 264.01 368.517 263.906 367.137C263.854 366.342 263.509 365.815 262.871 365.555C262.246 365.281 261.094 365.145 259.414 365.145C257.552 365.145 256.374 365.249 255.879 365.457C255.658 365.522 255.462 365.639 255.293 365.809C255.137 365.965 255.007 366.193 254.902 366.492C254.798 366.792 254.714 367.072 254.648 367.332C254.596 367.592 254.551 367.957 254.512 368.426C254.486 368.882 254.466 369.24 254.453 369.5C254.44 369.747 254.427 370.132 254.414 370.652C254.414 371.173 254.414 371.525 254.414 371.707ZM281.641 381.785L281.562 384.52C280.469 384.702 279.479 384.793 278.594 384.793C277.643 384.793 276.855 384.689 276.23 384.48C275.618 384.272 275.156 383.94 274.844 383.484C274.531 383.029 274.316 382.527 274.199 381.98C274.082 381.421 274.023 380.711 274.023 379.852V365.262H271.113V363.074H274.023V356.98L277.852 356.668V363.074H281.797V365.262H277.852V378.543C277.852 379.949 277.917 380.861 278.047 381.277C278.19 381.694 278.568 381.902 279.18 381.902C279.779 381.902 280.599 381.863 281.641 381.785Z" fill="black"/>
<path d="M99.9121 430H91.7803V413.994H93.9609V428.356H100.127L99.9121 430ZM107.045 428.679C108.062 428.657 108.767 428.582 109.161 428.453C109.562 428.324 109.763 428.07 109.763 427.69C109.841 426.666 109.881 425.481 109.881 424.135C109.881 423.691 109.863 423.057 109.827 422.233C109.791 421.403 109.773 420.787 109.773 420.386C109.773 420.264 109.752 420.153 109.709 420.053C109.673 419.952 109.609 419.87 109.516 419.806C109.43 419.734 109.34 419.673 109.247 419.623C109.161 419.573 109.036 419.534 108.871 419.505C108.714 419.476 108.577 419.451 108.463 419.43C108.355 419.408 108.198 419.394 107.99 419.387C107.79 419.38 107.632 419.376 107.518 419.376C107.41 419.376 107.249 419.376 107.034 419.376C106.819 419.376 106.655 419.376 106.54 419.376C106.433 419.376 106.275 419.38 106.067 419.387C105.867 419.394 105.709 419.408 105.595 419.43C105.487 419.451 105.351 419.476 105.187 419.505C105.029 419.534 104.904 419.573 104.811 419.623C104.725 419.673 104.635 419.734 104.542 419.806C104.456 419.87 104.392 419.952 104.349 420.053C104.313 420.153 104.295 420.264 104.295 420.386C104.295 420.787 104.277 421.403 104.241 422.233C104.205 423.057 104.188 423.691 104.188 424.135C104.188 425.481 104.227 426.666 104.306 427.69C104.306 428.07 104.513 428.331 104.929 428.475C105.351 428.611 106.057 428.679 107.045 428.679ZM107.023 430.161C106.229 430.161 105.566 430.129 105.036 430.064C104.506 430 104.048 429.86 103.661 429.646C103.282 429.424 102.992 429.191 102.791 428.947C102.59 428.697 102.433 428.306 102.318 427.776C102.204 427.239 102.132 426.709 102.104 426.187C102.082 425.664 102.071 424.937 102.071 424.006C102.071 423.311 102.078 422.731 102.093 422.266C102.114 421.8 102.157 421.345 102.222 420.901C102.286 420.45 102.365 420.089 102.458 419.816C102.558 419.537 102.698 419.276 102.877 419.032C103.063 418.782 103.271 418.592 103.5 418.463C103.729 418.334 104.019 418.223 104.37 418.13C104.728 418.03 105.115 417.965 105.53 417.937C105.953 417.901 106.454 417.883 107.034 417.883C107.614 417.883 108.112 417.901 108.527 417.937C108.95 417.965 109.337 418.03 109.688 418.13C110.046 418.223 110.339 418.334 110.568 418.463C110.798 418.592 111.002 418.782 111.181 419.032C111.367 419.276 111.507 419.537 111.6 419.816C111.7 420.089 111.782 420.45 111.847 420.901C111.911 421.345 111.951 421.8 111.965 422.266C111.986 422.731 111.997 423.311 111.997 424.006C111.997 424.937 111.983 425.664 111.954 426.187C111.933 426.709 111.865 427.239 111.75 427.776C111.635 428.306 111.474 428.697 111.267 428.947C111.066 429.198 110.772 429.431 110.386 429.646C110.006 429.86 109.551 430 109.021 430.064C108.492 430.129 107.826 430.161 107.023 430.161ZM119.635 428.679C120.652 428.657 121.357 428.582 121.751 428.453C122.152 428.324 122.353 428.07 122.353 427.69C122.431 426.666 122.471 425.481 122.471 424.135C122.471 423.691 122.453 423.057 122.417 422.233C122.381 421.403 122.363 420.787 122.363 420.386C122.363 420.264 122.342 420.153 122.299 420.053C122.263 419.952 122.199 419.87 122.105 419.806C122.02 419.734 121.93 419.673 121.837 419.623C121.751 419.573 121.626 419.534 121.461 419.505C121.303 419.476 121.167 419.451 121.053 419.43C120.945 419.408 120.788 419.394 120.58 419.387C120.38 419.38 120.222 419.376 120.107 419.376C120 419.376 119.839 419.376 119.624 419.376C119.409 419.376 119.244 419.376 119.13 419.376C119.022 419.376 118.865 419.38 118.657 419.387C118.457 419.394 118.299 419.408 118.185 419.43C118.077 419.451 117.941 419.476 117.776 419.505C117.619 419.534 117.493 419.573 117.4 419.623C117.314 419.673 117.225 419.734 117.132 419.806C117.046 419.87 116.981 419.952 116.938 420.053C116.903 420.153 116.885 420.264 116.885 420.386C116.885 420.787 116.867 421.403 116.831 422.233C116.795 423.057 116.777 423.691 116.777 424.135C116.777 425.481 116.817 426.666 116.896 427.69C116.896 428.07 117.103 428.331 117.519 428.475C117.941 428.611 118.646 428.679 119.635 428.679ZM119.613 430.161C118.818 430.161 118.156 430.129 117.626 430.064C117.096 430 116.638 429.86 116.251 429.646C115.871 429.424 115.581 429.191 115.381 428.947C115.18 428.697 115.023 428.306 114.908 427.776C114.794 427.239 114.722 426.709 114.693 426.187C114.672 425.664 114.661 424.937 114.661 424.006C114.661 423.311 114.668 422.731 114.683 422.266C114.704 421.8 114.747 421.345 114.812 420.901C114.876 420.45 114.955 420.089 115.048 419.816C115.148 419.537 115.288 419.276 115.467 419.032C115.653 418.782 115.861 418.592 116.09 418.463C116.319 418.334 116.609 418.223 116.96 418.13C117.318 418.03 117.705 417.965 118.12 417.937C118.543 417.901 119.044 417.883 119.624 417.883C120.204 417.883 120.702 417.901 121.117 417.937C121.54 417.965 121.926 418.03 122.277 418.13C122.635 418.223 122.929 418.334 123.158 418.463C123.387 418.592 123.591 418.782 123.771 419.032C123.957 419.276 124.096 419.537 124.189 419.816C124.29 420.089 124.372 420.45 124.437 420.901C124.501 421.345 124.54 421.8 124.555 422.266C124.576 422.731 124.587 423.311 124.587 424.006C124.587 424.937 124.573 425.664 124.544 426.187C124.522 426.709 124.454 427.239 124.34 427.776C124.225 428.306 124.064 428.697 123.856 428.947C123.656 429.198 123.362 429.431 122.976 429.646C122.596 429.86 122.141 430 121.611 430.064C121.081 430.129 120.415 430.161 119.613 430.161ZM137.23 424.188C137.23 424.847 137.216 425.406 137.188 425.864C137.166 426.323 137.119 426.777 137.048 427.229C136.983 427.68 136.883 428.049 136.747 428.335C136.618 428.621 136.446 428.894 136.231 429.151C136.024 429.402 135.766 429.595 135.458 429.731C135.15 429.868 134.788 429.971 134.373 430.043C133.958 430.122 133.474 430.161 132.923 430.161C131.032 430.161 129.951 429.739 129.679 428.894V433.996L127.562 434.157V418.216H129.485L129.689 419.516C130.126 418.427 131.272 417.883 133.127 417.883C133.507 417.883 133.85 417.901 134.158 417.937C134.473 417.965 134.756 418.022 135.007 418.108C135.265 418.194 135.49 418.287 135.684 418.388C135.884 418.488 136.06 418.628 136.21 418.807C136.368 418.979 136.5 419.154 136.607 419.333C136.715 419.512 136.804 419.741 136.876 420.021C136.955 420.293 137.016 420.561 137.059 420.826C137.109 421.091 137.145 421.417 137.166 421.804C137.195 422.183 137.213 422.552 137.22 422.91C137.227 423.261 137.23 423.687 137.23 424.188ZM135.114 423.49C135.1 422.051 135.078 421.098 135.05 420.633C135.021 420.132 134.831 419.795 134.48 419.623C134.137 419.451 133.453 419.365 132.429 419.365C131.132 419.365 130.302 419.573 129.937 419.988C129.736 420.282 129.636 421.138 129.636 422.556C129.636 422.842 129.639 423.268 129.646 423.834C129.661 424.4 129.668 424.808 129.668 425.059C129.668 425.309 129.657 425.632 129.636 426.025C129.621 426.419 129.614 426.691 129.614 426.842C129.614 427.279 129.682 427.622 129.818 427.873C129.962 428.124 130.241 428.324 130.656 428.475C131.079 428.618 131.67 428.689 132.429 428.689C133.474 428.689 134.18 428.604 134.545 428.432C134.939 428.245 135.136 427.282 135.136 425.542C135.136 425.277 135.132 424.912 135.125 424.446C135.118 423.981 135.114 423.662 135.114 423.49ZM146.898 430H144.718V413.994H146.898V430ZM159.725 430H157.608V422.867C157.608 422.409 157.605 422.044 157.598 421.771C157.598 421.492 157.583 421.213 157.555 420.934C157.533 420.654 157.508 420.447 157.479 420.311C157.451 420.167 157.397 420.028 157.318 419.892C157.247 419.748 157.172 419.652 157.093 419.602C157.014 419.551 156.899 419.505 156.749 419.462C156.599 419.412 156.448 419.383 156.298 419.376C156.147 419.369 155.947 419.365 155.696 419.365C155.152 419.365 154.687 419.397 154.3 419.462C153.92 419.519 153.609 419.602 153.365 419.709C153.122 419.816 152.932 419.967 152.796 420.16C152.667 420.354 152.577 420.565 152.527 420.794C152.477 421.016 152.452 421.292 152.452 421.621C152.452 421.807 152.463 422.133 152.484 422.599C152.506 423.057 152.517 423.429 152.517 423.716V430H150.4V418.216H152.334L152.538 419.537C152.724 418.95 153.136 418.527 153.773 418.27C154.411 418.012 155.17 417.883 156.051 417.883C156.466 417.883 156.835 417.908 157.157 417.958C157.479 418.008 157.766 418.094 158.017 418.216C158.267 418.33 158.482 418.463 158.661 418.613C158.847 418.764 159.001 418.964 159.123 419.215C159.252 419.458 159.356 419.709 159.435 419.967C159.513 420.225 159.574 420.547 159.617 420.934C159.66 421.32 159.689 421.707 159.703 422.094C159.717 422.473 159.725 422.928 159.725 423.458V430ZM165.558 428.743C165.558 429.252 165.411 429.646 165.117 429.925C164.831 430.197 164.483 430.333 164.075 430.333C163.667 430.333 163.309 430.193 163.001 429.914C162.693 429.628 162.539 429.237 162.539 428.743C162.539 428.242 162.682 427.855 162.969 427.583C163.262 427.304 163.61 427.164 164.011 427.164C164.426 427.164 164.788 427.307 165.096 427.594C165.404 427.873 165.558 428.256 165.558 428.743ZM180.93 430H172.798V413.994H174.979V428.356H181.145L180.93 430ZM192.649 423.941C191.79 424.027 191.257 424.077 191.049 424.092H185.194C185.201 425.13 185.23 426.269 185.28 427.508C185.316 427.988 185.52 428.306 185.893 428.464C186.272 428.614 187.006 428.689 188.095 428.689C188.503 428.689 188.854 428.675 189.147 428.646C189.441 428.611 189.677 428.553 189.856 428.475C190.043 428.389 190.186 428.31 190.286 428.238C190.394 428.16 190.472 428.041 190.522 427.884C190.573 427.719 190.605 427.583 190.619 427.476C190.633 427.361 190.648 427.193 190.662 426.971C190.676 426.742 190.694 426.555 190.716 426.412L192.359 426.713C192.345 427.214 192.309 427.64 192.252 427.991C192.195 428.335 192.098 428.639 191.962 428.904C191.826 429.169 191.665 429.381 191.479 429.538C191.292 429.688 191.042 429.814 190.727 429.914C190.411 430.014 190.064 430.079 189.685 430.107C189.305 430.143 188.836 430.161 188.277 430.161C187.561 430.161 186.938 430.118 186.408 430.032C185.878 429.953 185.424 429.853 185.044 429.731C184.672 429.61 184.364 429.413 184.12 429.141C183.877 428.861 183.683 428.596 183.54 428.346C183.404 428.095 183.304 427.726 183.239 427.239C183.175 426.752 183.132 426.312 183.11 425.918C183.096 425.517 183.089 424.965 183.089 424.264C183.089 423.275 183.1 422.506 183.121 421.954C183.15 421.403 183.221 420.851 183.336 420.3C183.451 419.741 183.604 419.337 183.798 419.086C183.991 418.835 184.278 418.603 184.657 418.388C185.037 418.173 185.484 418.037 186 417.979C186.516 417.915 187.171 417.883 187.966 417.883C188.517 417.883 188.993 417.901 189.395 417.937C189.796 417.965 190.164 418.03 190.501 418.13C190.838 418.23 191.113 418.345 191.328 418.474C191.55 418.603 191.743 418.792 191.908 419.043C192.08 419.294 192.209 419.555 192.295 419.827C192.388 420.092 192.463 420.447 192.521 420.891C192.578 421.335 192.614 421.786 192.628 422.244C192.642 422.695 192.649 423.261 192.649 423.941ZM185.205 422.964H190.533C190.519 422.047 190.483 421.209 190.426 420.45C190.397 420.013 190.207 419.723 189.856 419.58C189.513 419.43 188.879 419.354 187.955 419.354C186.931 419.354 186.283 419.412 186.011 419.526C185.889 419.562 185.782 419.627 185.688 419.72C185.603 419.806 185.531 419.931 185.474 420.096C185.416 420.26 185.37 420.414 185.334 420.558C185.305 420.701 185.28 420.901 185.259 421.159C185.244 421.41 185.234 421.607 185.227 421.75C185.219 421.886 185.212 422.097 185.205 422.384C185.205 422.67 185.205 422.864 185.205 422.964ZM204.24 418.216L200.341 430H198.042L194.336 418.216H196.323L199.202 428.163L202.06 418.216H204.24ZM215.53 423.941C214.671 424.027 214.137 424.077 213.93 424.092H208.075C208.082 425.13 208.111 426.269 208.161 427.508C208.197 427.988 208.401 428.306 208.773 428.464C209.153 428.614 209.887 428.689 210.976 428.689C211.384 428.689 211.735 428.675 212.028 428.646C212.322 428.611 212.558 428.553 212.737 428.475C212.924 428.389 213.067 428.31 213.167 428.238C213.274 428.16 213.353 428.041 213.403 427.884C213.453 427.719 213.486 427.583 213.5 427.476C213.514 427.361 213.529 427.193 213.543 426.971C213.557 426.742 213.575 426.555 213.597 426.412L215.24 426.713C215.226 427.214 215.19 427.64 215.133 427.991C215.076 428.335 214.979 428.639 214.843 428.904C214.707 429.169 214.546 429.381 214.359 429.538C214.173 429.688 213.923 429.814 213.607 429.914C213.292 430.014 212.945 430.079 212.565 430.107C212.186 430.143 211.717 430.161 211.158 430.161C210.442 430.161 209.819 430.118 209.289 430.032C208.759 429.953 208.304 429.853 207.925 429.731C207.552 429.61 207.244 429.413 207.001 429.141C206.757 428.861 206.564 428.596 206.421 428.346C206.285 428.095 206.185 427.726 206.12 427.239C206.056 426.752 206.013 426.312 205.991 425.918C205.977 425.517 205.97 424.965 205.97 424.264C205.97 423.275 205.98 422.506 206.002 421.954C206.031 421.403 206.102 420.851 206.217 420.3C206.331 419.741 206.485 419.337 206.679 419.086C206.872 418.835 207.159 418.603 207.538 418.388C207.918 418.173 208.365 418.037 208.881 417.979C209.396 417.915 210.052 417.883 210.847 417.883C211.398 417.883 211.874 417.901 212.275 417.937C212.676 417.965 213.045 418.03 213.382 418.13C213.718 418.23 213.994 418.345 214.209 418.474C214.431 418.603 214.624 418.792 214.789 419.043C214.961 419.294 215.09 419.555 215.176 419.827C215.269 420.092 215.344 420.447 215.401 420.891C215.459 421.335 215.494 421.786 215.509 422.244C215.523 422.695 215.53 423.261 215.53 423.941ZM208.086 422.964H213.414C213.4 422.047 213.364 421.209 213.307 420.45C213.278 420.013 213.088 419.723 212.737 419.58C212.394 419.43 211.76 419.354 210.836 419.354C209.812 419.354 209.164 419.412 208.892 419.526C208.77 419.562 208.662 419.627 208.569 419.72C208.483 419.806 208.412 419.931 208.354 420.096C208.297 420.26 208.251 420.414 208.215 420.558C208.186 420.701 208.161 420.901 208.14 421.159C208.125 421.41 208.115 421.607 208.107 421.75C208.1 421.886 208.093 422.097 208.086 422.384C208.086 422.67 208.086 422.864 208.086 422.964ZM220.611 430H218.495V414.037L220.611 413.865V430ZM240.334 413.994V424.017C240.334 424.876 240.295 425.614 240.216 426.229C240.144 426.845 240.012 427.393 239.818 427.873C239.625 428.346 239.382 428.732 239.088 429.033C238.801 429.327 238.422 429.57 237.949 429.764C237.484 429.95 236.961 430.079 236.381 430.15C235.801 430.222 235.099 430.258 234.275 430.258C233.48 430.258 232.804 430.226 232.245 430.161C231.687 430.097 231.171 429.979 230.698 429.807C230.226 429.628 229.842 429.395 229.549 429.108C229.262 428.815 229.015 428.435 228.808 427.97C228.6 427.497 228.453 426.942 228.367 426.305C228.288 425.667 228.249 424.905 228.249 424.017V413.994H230.43V424.296C230.43 424.89 230.43 425.32 230.43 425.585C230.437 425.85 230.458 426.176 230.494 426.562C230.53 426.942 230.576 427.203 230.634 427.347C230.691 427.483 230.784 427.655 230.913 427.862C231.049 428.07 231.2 428.202 231.364 428.26C231.536 428.31 231.769 428.374 232.062 428.453C232.356 428.532 232.671 428.578 233.008 428.593C233.352 428.6 233.778 428.604 234.286 428.604C234.888 428.604 235.389 428.586 235.79 428.55C236.198 428.514 236.553 428.442 236.854 428.335C237.154 428.228 237.383 428.106 237.541 427.97C237.706 427.826 237.835 427.619 237.928 427.347C238.028 427.075 238.092 426.792 238.121 426.498C238.15 426.204 238.164 425.814 238.164 425.327L238.153 413.994H240.334ZM253.289 424.188C253.289 424.847 253.275 425.406 253.246 425.864C253.225 426.323 253.178 426.777 253.106 427.229C253.042 427.68 252.942 428.049 252.806 428.335C252.677 428.621 252.505 428.894 252.29 429.151C252.082 429.402 251.825 429.595 251.517 429.731C251.209 429.868 250.847 429.971 250.432 430.043C250.016 430.122 249.533 430.161 248.981 430.161C247.091 430.161 246.009 429.739 245.737 428.894V433.996L243.621 434.157V418.216H245.544L245.748 419.516C246.185 418.427 247.331 417.883 249.186 417.883C249.565 417.883 249.909 417.901 250.217 417.937C250.532 417.965 250.815 418.022 251.065 418.108C251.323 418.194 251.549 418.287 251.742 418.388C251.943 418.488 252.118 418.628 252.269 418.807C252.426 418.979 252.559 419.154 252.666 419.333C252.773 419.512 252.863 419.741 252.935 420.021C253.013 420.293 253.074 420.561 253.117 420.826C253.167 421.091 253.203 421.417 253.225 421.804C253.253 422.183 253.271 422.552 253.278 422.91C253.285 423.261 253.289 423.687 253.289 424.188ZM251.173 423.49C251.159 422.051 251.137 421.098 251.108 420.633C251.08 420.132 250.89 419.795 250.539 419.623C250.195 419.451 249.511 419.365 248.487 419.365C247.191 419.365 246.36 419.573 245.995 419.988C245.795 420.282 245.694 421.138 245.694 422.556C245.694 422.842 245.698 423.268 245.705 423.834C245.719 424.4 245.727 424.808 245.727 425.059C245.727 425.309 245.716 425.632 245.694 426.025C245.68 426.419 245.673 426.691 245.673 426.842C245.673 427.279 245.741 427.622 245.877 427.873C246.02 428.124 246.299 428.324 246.715 428.475C247.137 428.618 247.728 428.689 248.487 428.689C249.533 428.689 250.238 428.604 250.604 428.432C250.997 428.245 251.194 427.282 251.194 425.542C251.194 425.277 251.191 424.912 251.184 424.446C251.176 423.981 251.173 423.662 251.173 423.49ZM258.843 428.743C258.843 429.252 258.696 429.646 258.402 429.925C258.116 430.197 257.769 430.333 257.36 430.333C256.952 430.333 256.594 430.193 256.286 429.914C255.978 429.628 255.824 429.237 255.824 428.743C255.824 428.242 255.967 427.855 256.254 427.583C256.548 427.304 256.895 427.164 257.296 427.164C257.711 427.164 258.073 427.307 258.381 427.594C258.689 427.873 258.843 428.256 258.843 428.743Z" fill="#848282"/>
<path d="M175.5 133.5C204.206 133.5 227.5 157.439 227.5 187C227.5 216.561 204.206 240.5 175.5 240.5C146.794 240.5 123.5 216.561 123.5 187C123.5 157.439 146.794 133.5 175.5 133.5Z" stroke="#5A9B0A"/>
<circle cx="175" cy="187" r="124.5" stroke="#5A9B0A"/>
<g clip-path="url(#paint1_diamond_1_2_clip_path)" data-figma-skip-parse="true"><g transform="matrix(0.000553257 0.0456452 -0.0257439 0.000312037 265.5 168.971)"><rect x="0" y="0" width="793.125" height="570.197" fill="url(#paint1_diamond_1_2)" opacity="1" shape-rendering="crispEdges"/><rect x="0" y="0" width="793.125" height="570.197" transform="scale(1 -1)" fill="url(#paint1_diamond_1_2)" opacity="1" shape-rendering="crispEdges"/><rect x="0" y="0" width="793.125" height="570.197" transform="scale(-1 1)" fill="url(#paint1_diamond_1_2)" opacity="1" shape-rendering="crispEdges"/><rect x="0" y="0" width="793.125" height="570.197" transform="scale(-1)" fill="url(#paint1_diamond_1_2)" opacity="1" shape-rendering="crispEdges"/></g></g><path d="M271.934 172C273.678 177.959 275.455 183.347 277.482 188.438C279.6 193.755 280.66 196.414 280.046 198.67C279.771 199.678 279.154 200.796 278.448 201.565C276.867 203.288 274.766 203.678 270.564 204.457C267.479 205.029 264.522 205.154 261.463 204.809C257.202 204.327 255.071 204.086 253.336 202.334C252.569 201.56 251.882 200.386 251.581 199.339C250.9 196.968 252.111 194.087 254.533 188.325C256.692 183.189 258.357 177.839 259.809 172H271.934Z" data-figma-gradient-fill="{&#34;type&#34;:&#34;GRADIENT_DIAMOND&#34;,&#34;stops&#34;:[{&#34;color&#34;:{&#34;r&#34;:0.10980392247438431,&#34;g&#34;:0.79215687513351440,&#34;b&#34;:0.24705882370471954,&#34;a&#34;:1.0},&#34;position&#34;:0.0},{&#34;color&#34;:{&#34;r&#34;:0.35294118523597717,&#34;g&#34;:0.60784316062927246,&#34;b&#34;:0.039215687662363052,&#34;a&#34;:1.0},&#34;position&#34;:1.0}],&#34;stopsVar&#34;:[{&#34;color&#34;:{&#34;r&#34;:0.10980392247438431,&#34;g&#34;:0.79215687513351440,&#34;b&#34;:0.24705882370471954,&#34;a&#34;:1.0},&#34;position&#34;:0.0},{&#34;color&#34;:{&#34;r&#34;:0.35294118523597717,&#34;g&#34;:0.60784316062927246,&#34;b&#34;:0.039215687662363052,&#34;a&#34;:1.0},&#34;position&#34;:1.0}],&#34;transform&#34;:{&#34;m00&#34;:1.1065146923065186,&#34;m01&#34;:-51.487773895263672,&#34;m02&#34;:290.69064331054688,&#34;m10&#34;:91.290359497070312,&#34;m11&#34;:0.62407445907592773,&#34;m12&#34;:123.01379394531250},&#34;opacity&#34;:1.0,&#34;blendMode&#34;:&#34;NORMAL&#34;,&#34;visible&#34;:true}"/>
<ellipse cx="265.825" cy="172.625" rx="6.225" ry="4.5" fill="#2ABF33"/>
<path d="M295.398 359.642V351.345H297.258L299.195 357.423L301.008 351.345H302.867V359.642H301.367V354.079L299.695 359.642H298.383L296.742 354.079V359.642H295.398ZM290.554 359.642V352.485H288.648V351.345H294.054V352.485H292.148V359.642H290.554Z" fill="#848282"/>
<defs>
<clipPath id="paint1_diamond_1_2_clip_path"><path d="M271.934 172C273.678 177.959 275.455 183.347 277.482 188.438C279.6 193.755 280.66 196.414 280.046 198.67C279.771 199.678 279.154 200.796 278.448 201.565C276.867 203.288 274.766 203.678 270.564 204.457C267.479 205.029 264.522 205.154 261.463 204.809C257.202 204.327 255.071 204.086 253.336 202.334C252.569 201.56 251.882 200.386 251.581 199.339C250.9 196.968 252.111 194.087 254.533 188.325C256.692 183.189 258.357 177.839 259.809 172H271.934Z"/></clipPath><linearGradient id="paint0_linear_1_2" x1="174.344" y1="91" x2="174.344" y2="279.973" gradientUnits="userSpaceOnUse">
<stop offset="0.638939" stop-color="#6FDC30" stop-opacity="0.86"/>
<stop offset="1" stop-color="#5A9B0A"/>
</linearGradient>
<linearGradient id="paint1_diamond_1_2" x1="0" y1="0" x2="500" y2="500" gradientUnits="userSpaceOnUse">
<stop stop-color="#1CCA3F"/>
<stop offset="1" stop-color="#5A9B0A"/>
</linearGradient>
</defs>
</svg>
